Coordinates
version=1
nRows=27
nColumns=38
inDegrees=no

Units are S.I. units (second, meters, Newtons, ...)
If the header above contains a line with 'inDegrees', this indicates whether rotational values are in degrees (yes) or radians (no).

endheader
time	pelvis_tilt	pelvis_list	pelvis_rotation	pelvis_tx	pelvis_ty	pelvis_tz	hip_flexion_r	hip_adduction_r	hip_rotation_r	knee_angle_r	ankle_angle_r	subtalar_angle_r	mtp_angle_r	hip_flexion_l	hip_adduction_l	hip_rotation_l	knee_angle_l	ankle_angle_l	subtalar_angle_l	mtp_angle_l	lumbar_extension	lumbar_bending	lumbar_rotation	arm_flex_r	arm_add_r	arm_rot_r	elbow_flex_r	pro_sup_r	wrist_flex_r	wrist_dev_r	arm_flex_l	arm_add_l	arm_rot_l	elbow_flex_l	pro_sup_l	wrist_flex_l	wrist_dev_l
15	-0.228711	1.24952	1.80408	0.680726	0.297974	0.926617	0.981983	-0.122252	0.0151626	1.08987	-0.297937	0	0	0.823641	-0.13462	-0.23333	1.02863	-0.126677	0	0	-0.537962	0.052558	0.343128	0.135659	-0.637674	0.0820304	0.770022	0.975989	0	0	0.0240081	-0.12536	0.139563	0.763562	1.5708	0	0
15.01	-0.230402	1.24309	1.80633	0.680205	0.296294	0.925047	0.9939	-0.124894	0.0169923	1.09397	-0.301196	0	0	0.833479	-0.132474	-0.234224	1.03121	-0.126305	0	0	-0.537313	0.0550128	0.319146	0.181947	-0.640379	0.138507	0.747842	0.963496	0	0	0.00683309	-0.123648	0.107509	0.776797	1.5708	0	0
15.02	-0.232021	1.23837	1.80844	0.679784	0.294746	0.923661	1.00385	-0.127215	0.0181329	1.09805	-0.303933	0	0	0.84121	-0.131216	-0.23602	1.03382	-0.125847	0	0	-0.538332	0.0577901	0.304333	0.213974	-0.643349	0.175445	0.733245	0.953967	0	0	-0.00265372	-0.121692	0.0885893	0.782746	1.5708	0	0
15.03	-0.23257	1.2335	1.80947	0.67938	0.293212	0.922292	1.01382	-0.12896	0.0194647	1.10164	-0.306433	0	0	0.849417	-0.130541	-0.237762	1.03714	-0.125609	0	0	-0.538946	0.0607805	0.291971	0.242812	-0.646364	0.209272	0.720146	0.942912	0	0	-0.0101575	-0.119542	0.072935	0.786403	1.5708	0	0
15.04	-0.232629	1.22851	1.81012	0.678948	0.291703	0.920945	1.02369	-0.130755	0.0205483	1.10593	-0.307531	0	0	0.858105	-0.130143	-0.23937	1.04107	-0.126147	0	0	-0.53913	0.0638418	0.281274	0.269411	-0.649576	0.241597	0.708071	0.930686	0	0	-0.0162883	-0.11726	0.0597407	0.788679	1.5708	0	0
15.05	-0.2325	1.22379	1.81057	0.678491	0.290214	0.919666	1.03264	-0.13268	0.0213693	1.10952	-0.308335	0	0	0.866726	-0.130014	-0.240866	1.04509	-0.127412	0	0	-0.539565	0.06685	0.273752	0.290886	-0.653451	0.266986	0.699187	0.919925	0	0	-0.0202276	-0.115149	0.0510208	0.789601	1.5708	0	0
15.06	-0.2328	1.22018	1.81148	0.678029	0.288779	0.918525	1.04019	-0.134814	0.0218913	1.11242	-0.309741	0	0	0.873989	-0.129961	-0.242271	1.04857	-0.128815	0	0	-0.541361	0.0696918	0.268338	0.309083	-0.658001	0.288121	0.692847	0.910453	0	0	-0.0230159	-0.113217	0.0449325	0.790641	1.5708	0	0
15.07	-0.233729	1.21708	1.81294	0.677582	0.287353	0.917487	1.04725	-0.136815	0.022862	1.11533	-0.311404	0	0	0.880464	-0.129953	-0.243525	1.05171	-0.130266	0	0	-0.543925	0.0721457	0.263493	0.326895	-0.66272	0.309002	0.687109	0.900669	0	0	-0.0258616	-0.111398	0.0391389	0.793119	1.5708	0	0
15.08	-0.23484	1.21441	1.81449	0.677159	0.28597	0.916578	1.05381	-0.138702	0.0237375	1.1183	-0.313041	0	0	0.886084	-0.129834	-0.244468	1.05412	-0.1317	0	0	-0.547241	0.0744074	0.257632	0.347681	-0.666795	0.334486	0.679707	0.889236	0	0	-0.0298864	-0.109635	0.031821	0.797642	1.5708	0	0
15.09	-0.235728	1.21108	1.81555	0.676809	0.284553	0.915671	1.06088	-0.140265	0.0247497	1.12073	-0.315433	0	0	0.892248	-0.129629	-0.245162	1.05614	-0.133648	0	0	-0.548117	0.0782139	0.24486	0.381559	-0.665479	0.376267	0.662761	0.874906	0	0	-0.0374904	-0.109051	0.0215876	0.802352	1.5708	0	0
15.1	-0.237565	1.20822	1.81719	0.676476	0.283162	0.914865	1.06707	-0.141865	0.0257193	1.1225	-0.317517	0	0	0.897496	-0.129375	-0.246202	1.05771	-0.135073	0	0	-0.550151	0.0813685	0.23619	0.407884	-0.665398	0.406283	0.651219	0.863652	0	0	-0.0425835	-0.108392	0.0152712	0.806291	1.5708	0	0
15.11	-0.240457	1.20609	1.81965	0.676162	0.28187	0.91415	1.07245	-0.143719	0.0265126	1.12456	-0.319718	0	0	0.901271	-0.128972	-0.247654	1.05872	-0.135981	0	0	-0.55324	0.0839639	0.228855	0.431802	-0.665598	0.43314	0.641671	0.852483	0	0	-0.0471686	-0.107628	0.00973381	0.810533	1.5708	0	0
15.12	-0.243785	1.20418	1.82217	0.675868	0.280673	0.913493	1.07729	-0.145446	0.0274812	1.12601	-0.321861	0	0	0.904352	-0.128572	-0.249414	1.05947	-0.136493	0	0	-0.556677	0.0860027	0.223849	0.452022	-0.666494	0.454686	0.634374	0.842285	0	0	-0.0505873	-0.106662	0.00580025	0.814121	1.5708	0	0
15.13	-0.245961	1.20241	1.82373	0.675584	0.279603	0.912889	1.0817	-0.147032	0.0281931	1.1272	-0.323646	0	0	0.907497	-0.128583	-0.251105	1.06069	-0.136969	0	0	-0.560073	0.0882251	0.22115	0.468729	-0.668258	0.471222	0.628771	0.833226	0	0	-0.0527418	-0.105415	0.00337652	0.816756	1.5708	0	0
15.14	-0.248129	1.20043	1.82534	0.675256	0.278601	0.912285	1.08624	-0.148744	0.0290639	1.12884	-0.324943	0	0	0.910742	-0.128306	-0.252859	1.06182	-0.137345	0	0	-0.562911	0.0904867	0.219337	0.483998	-0.670556	0.486598	0.623934	0.824434	0	0	-0.0543444	-0.103922	0.00169466	0.81854	1.5708	0	0
15.15	-0.250315	1.19817	1.82701	0.674872	0.277636	0.911677	1.09105	-0.150579	0.0299463	1.1311	-0.32626	0	0	0.914225	-0.127597	-0.254442	1.06273	-0.137839	0	0	-0.565458	0.0925178	0.218705	0.497318	-0.673657	0.499888	0.620289	0.815607	0	0	-0.0554767	-0.102496	0.00110774	0.820366	1.5708	0	0
15.16	-0.252224	1.19588	1.82861	0.674507	0.276721	0.91108	1.09592	-0.152147	0.0308587	1.13264	-0.328649	0	0	0.918096	-0.126857	-0.255661	1.06399	-0.138685	0	0	-0.567697	0.0946606	0.218702	0.509551	-0.676958	0.51205	0.617145	0.806948	0	0	-0.0563639	-0.101281	0.00119199	0.822287	1.5708	0	0
15.17	-0.254555	1.1933	1.83062	0.674165	0.275827	0.910477	1.10139	-0.153514	0.0319803	1.13396	-0.331142	0	0	0.922372	-0.125962	-0.256751	1.0656	-0.139678	0	0	-0.569841	0.0960884	0.219694	0.520085	-0.680947	0.522725	0.615144	0.798575	0	0	-0.0571331	-0.100215	0.00168223	0.825215	1.5708	0	0
15.18	-0.257829	1.19063	1.83339	0.673838	0.274967	0.909891	1.10708	-0.154882	0.0334233	1.13576	-0.333323	0	0	0.926288	-0.124598	-0.257956	1.06676	-0.14049	0	0	-0.572204	0.0966377	0.221118	0.529611	-0.685197	0.532131	0.613912	0.790188	0	0	-0.0581989	-0.09927	0.00200234	0.829452	1.5708	0	0
15.19	-0.261236	1.18797	1.83632	0.673539	0.274132	0.909327	1.11231	-0.156306	0.0349512	1.13733	-0.33508	0	0	0.929869	-0.122983	-0.259132	1.06737	-0.141066	0	0	-0.574844	0.0968153	0.222348	0.539234	-0.689173	0.541452	0.612648	0.782138	0	0	-0.059917	-0.0986073	0.0016765	0.835119	1.5708	0	0
15.2	-0.264217	1.18507	1.83886	0.673278	0.273312	0.908751	1.11742	-0.157556	0.0365017	1.13821	-0.336726	0	0	0.933787	-0.121466	-0.260042	1.06809	-0.141598	0	0	-0.577361	0.0967929	0.222565	0.550656	-0.691679	0.552864	0.60958	0.775075	0	0	-0.0626768	-0.0982461	2.60891e-05	0.842127	1.5708	0	0
15.21	-0.26759	1.18299	1.84174	0.673118	0.272516	0.908214	1.12176	-0.158538	0.0380888	1.13932	-0.338365	0	0	0.936963	-0.120379	-0.260943	1.06929	-0.14214	0	0	-0.578508	0.0992004	0.217593	0.569859	-0.688336	0.572316	0.600097	0.767921	0	0	-0.0671991	-0.0983944	-0.00349389	0.846746	1.5708	0	0
15.22	-0.270158	1.18106	1.84396	0.672973	0.271802	0.907703	1.12565	-0.159378	0.0395063	1.14073	-0.339316	0	0	0.940036	-0.119627	-0.261626	1.07062	-0.142541	0	0	-0.579613	0.101646	0.21407	0.585785	-0.685477	0.586725	0.592375	0.761859	0	0	-0.0709503	-0.0981484	-0.00678499	0.850613	1.5708	0	0
15.23	-0.272356	1.1791	1.84598	0.672816	0.271179	0.9072	1.12955	-0.160199	0.0410692	1.14194	-0.340026	0	0	0.942972	-0.118805	-0.262284	1.07174	-0.142834	0	0	-0.580522	0.10386	0.212134	0.598112	-0.683607	0.595937	0.586805	0.757242	0	0	-0.0736737	-0.097631	-0.00937957	0.8535	1.5708	0	0
15.24	-0.273822	1.17711	1.84745	0.672647	0.270634	0.906731	1.13309	-0.160978	0.0424601	1.14324	-0.340144	0	0	0.945819	-0.118075	-0.262893	1.0726	-0.143105	0	0	-0.581277	0.106008	0.211672	0.607202	-0.682942	0.600686	0.583487	0.754332	0	0	-0.0753081	-0.0970119	-0.0109572	0.85515	1.5708	0	0
15.25	-0.274615	1.1749	1.84851	0.672484	0.270166	0.906241	1.13691	-0.161755	0.0438321	1.14458	-0.340927	0	0	0.948915	-0.11741	-0.263424	1.07343	-0.143375	0	0	-0.581595	0.108064	0.212173	0.613681	-0.682861	0.60156	0.581491	0.753544	0	0	-0.0764701	-0.0966009	-0.0116911	0.856223	1.5708	0	0
15.26	-0.275064	1.17232	1.84943	0.672336	0.269742	0.905699	1.1414	-0.163045	0.0442727	1.14616	-0.342521	0	0	0.95241	-0.116674	-0.26395	1.07423	-0.143743	0	0	-0.58129	0.109895	0.21412	0.616973	-0.683575	0.597239	0.580705	0.755884	0	0	-0.0767296	-0.096332	-0.0111085	0.856536	1.5708	0	0
